<!--?xml version="1.0" encoding="UTF-8" standalone="no"?-->

<svg width="170.00" height="170.00" viewBox="0.00 0.00 500.00 500.00" xmlns="http://www.w3.org/2000/svg" xmlns:xlink="http://www.w3.org/1999/xlink" style="">
<g stroke-linecap="round" id="Layer_2">
<path d="M24.28,389.17 C29.98,388.26 34.47,387.19 37.50,385.57 C42.58,382.77 52.05,374.56 58.14,368.50 C63.59,362.98 72.07,352.80 77.50,345.42 C81.59,339.59 89.92,327.53 93.10,321.95 C97.06,314.76 102.60,303.81 106.06,296.62 C111.88,284.09 121.67,256.41 126.06,240.49 C129.62,227.00 135.00,194.94 137.54,177.71 C139.74,160.76 141.66,130.90 142.40,116.50 C142.93,99.34 141.90,86.85 141.81,85.76 C140.41,97.95 139.65,123.97 140.12,141.10 C141.02,160.12 143.93,188.43 146.11,204.08 C149.06,222.65 154.68,247.72 159.56,265.90 C164.82,283.77 173.56,309.21 178.89,322.12 C184.95,335.90 198.37,360.93 208.35,377.61 C213.98,386.65 219.22,393.69 225.39,401.25 C223.53,401.30 195.62,365.05 190.24,359.25 C185.93,354.63 177.84,347.21 170.01,340.55 C163.98,335.55 153.66,327.84 145.30,322.25 C139.00,318.22 125.84,310.36 119.17,306.67 C112.45,303.18 97.25,295.94 91.88,293.67 C83.69,290.34 71.12,286.22 62.28,284.02 C51.97,281.59 44.18,280.24 37.56,280.31 C31.79,280.50 28.46,280.87 24.52,282.16 C19.97,283.69 13.85,286.82 12.00,289.52 C11.53,290.22 10.22,293.29 9.74,294.37 C11.73,298.63 13.72,301.33 16.97,302.80 C22.44,305.15 35.18,307.35 44.71,308.41 C59.35,309.64 89.77,310.04 105.55,309.80 C120.85,309.23 151.64,307.27 167.67,305.79 C176.02,304.82 191.47,302.88 198.56,301.90 C207.74,300.52 225.10,296.02 228.31,295.26 C231.95,294.35 237.34,293.01 237.78,292.50 C237.78,292.50 244.77,291.18 244.77,291.18 C253.61,291.18 258.39,290.47 265.77,288.82 C276.44,286.38 287.05,283.29 293.96,280.64 C301.18,277.80 314.17,271.91 321.15,268.55 C328.24,264.97 341.74,257.54 348.22,253.68 C354.72,249.65 367.17,241.50 373.75,236.84 C380.16,232.09 394.55,220.65 398.02,217.57 C403.50,212.58 415.92,200.36 418.76,197.25 C422.97,192.62 433.83,179.14 437.55,173.62 C441.21,168.16 451.24,150.29 452.87,147.01 C454.06,144.60 455.37,140.51 456.76,135.37 C457.73,131.70 458.99,124.70 458.34,121.58 C457.98,119.96 456.22,117.21 455.07,116.27 C453.35,114.96 447.09,113.81 442.47,114.39 C437.95,115.00 421.54,120.11 414.78,122.93 C402.87,128.01 376.06,142.10 362.96,150.09 C350.44,157.97 327.62,174.36 316.60,183.64 C313.08,186.66 297.83,201.28 294.67,204.70 C289.67,210.25 282.18,219.02 276.79,226.08 C272.70,231.63 263.36,246.62 261.18,250.52 C257.33,257.45 251.92,269.50 247.95,279.56 C246.55,283.25 244.28,290.54 243.46,294.07 C242.50,298.34 241.93,304.27 242.63,307.05 C243.10,308.71 244.68,310.44 246.42,311.21 C249.37,312.42 255.08,312.88 259.15,312.75 C265.12,312.44 306.03,305.79 323.19,302.97 C330.85,301.84 350.28,299.20 356.05,298.75 C368.02,297.84 386.55,299.98 392.79,301.53 C396.79,302.55 401.17,305.00 404.76,307.75 C406.66,309.24 408.76,311.29 409.74,312.71 C410.71,314.15 411.80,317.07 412.04,318.82 C412.36,321.67 410.78,330.57 410.19,332.29 C408.99,335.68 404.58,342.05 402.99,344.15 C399.12,349.42 389.02,358.24 383.23,363.09 C376.97,368.19 364.79,376.65 358.13,380.53 C353.99,382.92 338.04,391.18 330.19,394.43 C319.05,398.89 311.65,401.44 304.59,402.85 C301.15,403.54 296.78,403.76 292.89,403.56 C288.88,403.30 283.89,401.98 281.55,400.24 C279.40,398.55 276.93,393.53 277.04,390.79 C277.17,388.68 279.67,382.60 282.28,379.34 C285.34,375.58 298.98,364.03 304.60,360.13 C312.67,354.57 343.31,338.20 357.75,330.93 C370.92,324.64 398.20,312.46 413.20,306.23 C427.41,300.58 459.18,288.33 469.38,285.60 C477.69,283.49 490.99,280.38 492.51,280.88 C492.69,280.94 492.88,281.15 493.09,281.49" fill="none" stroke="rgb(12, 236, 221)" stroke-width="10.00" stroke-opacity="1.00" stroke-linejoin="round" class="soAOuHSg_0"></path>
</g>
<style data-made-with="vivus-instant">.soAOuHSg_0{stroke-dasharray:2389 2391;stroke-dashoffset:2390;animation:soAOuHSg_draw_0 1800ms linear 0ms infinite,soAOuHSg_fade 1800ms linear 0ms infinite;}@keyframes soAOuHSg_draw{100%{stroke-dashoffset:0;}}@keyframes soAOuHSg_fade{0%{stroke-opacity:1;}77.77777777777777%{stroke-opacity:1;}100%{stroke-opacity:0;}}@keyframes soAOuHSg_draw_0{0%{stroke-dashoffset: 2390}55.55555555555556%{ stroke-dashoffset: 0;}100%{ stroke-dashoffset: 0;}}</style></svg>
